<svg width="121" height="100" viewBox="0 0 121 100" fill="none" xmlns="http://www.w3.org/2000/svg">
<g clip-path="url(#clip0_18_12212)">
<rect width="121" height="99" transform="translate(0 0.5)" fill="white" fill-opacity="0.01"/>
<rect width="121" height="99" transform="translate(0 0.5)" fill="white" fill-opacity="0.01"/>
<path d="M60.6033 99.9921C85.237 99.9921 105.207 96.2607 105.207 91.6579C105.207 87.055 85.237 83.3237 60.6033 83.3237C35.9696 83.3237 16 87.055 16 91.6579C16 96.2607 35.9696 99.9921 60.6033 99.9921Z" fill="#F5F5F7" fill-opacity="0.8"/>
<path fill-rule="evenodd" clip-rule="evenodd" d="M96.2855 67.1737L80.5454 47.8019C79.7902 46.8901 78.6862 46.3381 77.5237 46.3381H43.6816C42.5198 46.3381 41.4158 46.8901 40.6606 47.8019L24.9211 67.1737V77.2941H96.2862V67.1737H96.2855Z" fill="#AEB8C2"/>
<path fill-rule="evenodd" clip-rule="evenodd" d="M38.2566 21.3355H82.9493C83.6473 21.3355 84.3166 21.6128 84.8102 22.1063C85.3037 22.5998 85.5809 23.2692 85.5809 23.9671V85.3776C85.5809 86.0755 85.3037 86.7449 84.8102 87.2384C84.3166 87.7319 83.6473 88.0092 82.9493 88.0092H38.2566C37.5586 88.0092 36.8893 87.7319 36.3958 87.2384C35.9023 86.7449 35.625 86.0755 35.625 85.3776V23.9671C35.625 23.2692 35.9023 22.5998 36.3958 22.1063C36.8893 21.6128 37.5586 21.3355 38.2566 21.3355V21.3355Z" fill="#F5F5F7"/>
<path fill-rule="evenodd" clip-rule="evenodd" d="M44.0777 27.8835H77.1283C77.4773 27.8835 77.812 28.0222 78.0587 28.2689C78.3055 28.5157 78.4441 28.8504 78.4441 29.1993V45.6184C78.4441 45.9674 78.3055 46.3021 78.0587 46.5488C77.812 46.7956 77.4773 46.9342 77.1283 46.9342H44.0777C43.7287 46.9342 43.394 46.7956 43.1472 46.5488C42.9005 46.3021 42.7619 45.9674 42.7619 45.6184V29.1993C42.7619 28.8504 42.9005 28.5157 43.1472 28.2689C43.394 28.0222 43.7287 27.8835 44.0777 27.8835ZM44.25 54.077H76.9559C77.3506 54.077 77.7291 54.2338 78.0082 54.5128C78.2873 54.7919 78.4441 55.1704 78.4441 55.5651C78.4441 55.9598 78.2873 56.3383 78.0082 56.6174C77.7291 56.8965 77.3506 57.0533 76.9559 57.0533H44.25C43.8553 57.0533 43.4768 56.8965 43.1977 56.6174C42.9186 56.3383 42.7619 55.9598 42.7619 55.5651C42.7619 55.1704 42.9186 54.7919 43.1977 54.5128C43.4768 54.2338 43.8553 54.077 44.25 54.077ZM44.25 61.8158H76.9559C77.3507 61.8158 77.7293 61.9726 78.0085 62.2518C78.2876 62.5309 78.4444 62.9095 78.4444 63.3043C78.4444 63.699 78.2876 64.0776 78.0085 64.3568C77.7293 64.6359 77.3507 64.7928 76.9559 64.7928H44.25C43.8552 64.7928 43.4766 64.6359 43.1975 64.3568C42.9184 64.0776 42.7615 63.699 42.7615 63.3043C42.7615 62.9095 42.9184 62.5309 43.1975 62.2518C43.4766 61.9726 43.8552 61.8158 44.25 61.8158ZM96.1402 90.4355C95.6303 92.4559 93.8395 93.9618 91.7092 93.9618H29.4967C27.3665 93.9618 25.5757 92.4553 25.0665 90.4355C24.9693 90.0505 24.9203 89.6549 24.9204 89.2579V67.1743H42.2349C44.1474 67.1743 45.6888 68.7849 45.6888 70.7401V70.7664C45.6888 72.721 47.248 74.2993 49.1605 74.2993H72.0454C73.9579 74.2993 75.5171 72.7066 75.5171 70.7513V70.7434C75.5171 68.7881 77.0586 67.1737 78.9711 67.1737H96.2855V89.2585C96.2855 89.6645 96.2349 90.0585 96.1402 90.4355Z" fill="#DCE0E6"/>
<path fill-rule="evenodd" clip-rule="evenodd" d="M98.3165 22.4026L93.823 24.1461C93.7076 24.1909 93.5818 24.2023 93.4602 24.1789C93.3386 24.1555 93.2261 24.0982 93.1356 24.0137C93.045 23.9292 92.9802 23.8208 92.9486 23.7011C92.9169 23.5813 92.9197 23.4551 92.9566 23.3368L94.2309 19.2533C92.5276 17.3164 91.5276 14.9546 91.5276 12.4059C91.5276 5.83026 98.1842 0.5 106.396 0.5C114.606 0.5 121.263 5.83026 121.263 12.4059C121.263 18.9816 114.607 24.3118 106.395 24.3118C103.416 24.3118 100.643 23.6105 98.3165 22.4026Z" fill="#DCE0E6"/>
<path d="M112.253 14.5559C113.288 14.5559 114.127 13.7268 114.127 12.704C114.127 11.6811 113.288 10.852 112.253 10.852C111.217 10.852 110.378 11.6811 110.378 12.704C110.378 13.7268 111.217 14.5559 112.253 14.5559Z" fill="white"/>
<path fill-rule="evenodd" clip-rule="evenodd" d="M102.413 14.3243H98.6644L100.571 11.0836L102.413 14.3243ZM104.756 11.0836H108.035V14.3243H104.756V11.0836Z" fill="white"/>
</g>
<defs>
<clipPath id="clip0_18_12212">
<rect width="121" height="99" fill="white" transform="translate(0 0.5)"/>
</clipPath>
</defs>
</svg>
