<svg width="117" height="98" viewBox="0 0 117 98" fill="none" xmlns="http://www.w3.org/2000/svg">
<path d="M35.7374 31.1313C35.7374 13.938 49.6754 0 66.8687 0C84.062 0 98 13.938 98 31.1313V97.5235H35.7374V31.1313Z" fill="#F05972"/>
<path opacity="0.5" d="M31.1313 97.6823C13.938 97.6823 1.66208e-07 83.7444 3.71237e-07 66.551C5.76265e-07 49.3577 13.938 35.4198 31.1313 35.4198L97.5235 35.4198L97.5235 97.6823L31.1313 97.6823Z" fill="#EE5474"/>
<path d="M77.652 62.2135C69.5213 69.3568 56.2802 57.8221 54.4425 62.2938C53.0677 65.5791 60.554 65.4237 60.8305 67.5821C60.9108 68.1727 60.4965 68.7568 59.9388 68.9121C58.7695 69.2016 43.2919 70.8068 43.7161 70.7548C42.9427 70.8259 42.3949 71.5133 42.4496 72.2492C42.4832 73.0391 43.2034 73.6618 43.9768 73.5907C56.3845 72.5278 58.9316 71.8126 58.0828 73.7495C57.9776 74.0192 57.7481 74.2093 57.4692 74.2869C43.8505 78.2951 42.5917 78.1769 43.0858 80.0163C43.3023 80.8154 44.0856 81.2763 44.8847 81.0599C58.6514 77.389 58.6862 77.0609 59.1303 78.073C59.3277 78.5228 59.1173 79.0621 58.6674 79.2595L48.8087 83.5849C48.2089 83.848 47.8979 84.5656 48.1236 85.1818C48.3657 85.8355 49.0457 86.163 49.7159 85.9583C62.3547 81.7543 61.6352 81.8465 62.1324 82.1647C64.7173 83.9809 53.9119 86.3525 54.9764 88.8805C55.256 89.5177 55.9735 89.8287 56.6108 89.5491C63.4917 86.4855 76.8209 81.308 88.0844 70.9127C103.673 56.5189 112.205 38.4712 97.2048 23.6403C97.2259 23.5863 103.58 39.3942 77.652 62.2135Z" fill="white"/>
</svg>
