<svg width="476" height="121" viewBox="0 0 476 121" fill="none" xmlns="http://www.w3.org/2000/svg">
<path d="M136.036 41.476C127.848 41.476 121.592 45.248 118.464 51.78C115.888 45.34 109.908 41.476 101.996 41.476C94.6356 41.476 88.9316 44.696 85.6196 50.308V42.58H80.2836V89.5H85.6196V60.98C85.6196 52.332 91.5996 46.628 100.432 46.628C108.896 46.628 114.508 52.24 114.508 60.796V89.5H119.844V60.98C119.844 52.332 125.732 46.628 134.564 46.628C143.12 46.628 148.64 52.24 148.64 60.796V89.5H153.976V59.324C153.976 48.56 146.892 41.476 136.036 41.476ZM189.775 90.604C203.851 90.604 214.523 80.024 214.523 66.04C214.523 52.056 203.851 41.476 189.775 41.476C175.607 41.476 164.935 52.056 164.935 66.04C164.935 80.024 175.607 90.604 189.775 90.604ZM189.775 85.452C178.735 85.452 170.455 77.08 170.455 66.04C170.455 55 178.735 46.628 189.775 46.628C200.815 46.628 209.003 55 209.003 66.04C209.003 77.08 200.815 85.452 189.775 85.452ZM251.586 41.476C242.662 41.476 235.21 46.168 231.346 53.436V23.26H226.01V89.5H231.346V78.644C235.21 85.912 242.662 90.604 251.586 90.604C265.294 90.604 275.506 80.024 275.506 66.04C275.506 52.056 265.294 41.476 251.586 41.476ZM250.666 85.452C239.626 85.452 231.346 77.08 231.346 66.04C231.346 55 239.626 46.628 250.666 46.628C261.706 46.628 269.986 55 269.986 66.04C269.986 77.08 261.706 85.452 250.666 85.452Z" fill="white"/>
<path d="M23.441 45.4198C23.441 34.1422 32.5833 25 43.8608 25V25C55.1384 25 64.2806 34.1423 64.2806 45.4198V88.9681H23.441V45.4198Z" fill="#F05972"/>
<path opacity="0.5" d="M20.4198 89.0722C9.14224 89.0722 1.0902e-07 79.93 2.43504e-07 68.6524V68.6524C3.77987e-07 57.3749 9.14225 48.2327 20.4198 48.2327L63.9681 48.2327L63.9681 89.0722L20.4198 89.0722Z" fill="#EE5474"/>
<path d="M50.9339 65.8073C45.6007 70.4928 36.9156 62.9269 35.7102 65.86C34.8084 68.0149 39.7189 67.9129 39.9002 69.3287C39.9529 69.7161 39.6812 70.0992 39.3154 70.2011C38.5484 70.391 28.3962 71.4439 28.6745 71.4098C28.1671 71.4564 27.8079 71.9073 27.8437 72.39C27.8658 72.9081 28.3382 73.3166 28.8455 73.2699C36.984 72.5727 38.6547 72.1036 38.0979 73.3741C38.0289 73.551 37.8784 73.6757 37.6955 73.7266C28.7626 76.3556 27.9369 76.2781 28.261 77.4847C28.403 78.0088 28.9168 78.3111 29.441 78.1691C38.4709 75.7613 38.4938 75.5461 38.785 76.21C38.9145 76.505 38.7765 76.8588 38.4814 76.9882L32.0148 79.8254C31.6214 79.998 31.4174 80.4686 31.5654 80.8728C31.7242 81.3016 32.1703 81.5164 32.6099 81.3822C40.9 78.6246 40.4281 78.6851 40.7542 78.8938C42.4497 80.0851 35.3622 81.6407 36.0604 83.2988C36.2437 83.7168 36.7144 83.9208 37.1324 83.7374C41.6458 81.7279 50.3888 78.3319 57.7768 71.5133C68.0017 62.0721 73.598 50.2341 63.7591 40.5062C63.7729 40.4708 67.9409 50.8396 50.9339 65.8073Z" fill="white"/>
<path d="M315.592 89.5H333.256L312.74 64.2L332.612 42.58H315.224L299.768 60.06V23.26H286.336V89.5H299.768V78.184L303.264 74.412L315.592 89.5ZM368.537 42.58V47.272C364.949 43.592 360.073 41.476 354.369 41.476C341.489 41.476 331.737 52.056 331.737 66.04C331.737 80.024 341.489 90.604 354.369 90.604C360.073 90.604 364.949 88.488 368.537 84.808V89.5H381.969V42.58H368.537ZM357.037 77.632C350.505 77.632 345.629 72.664 345.629 66.04C345.629 59.416 350.505 54.448 357.037 54.448C363.661 54.448 368.537 59.416 368.537 66.04C368.537 72.664 363.661 77.632 357.037 77.632ZM418.749 41.844C413.689 41.844 409.365 44.052 406.053 47.916V42.58H392.621V89.5H406.053V67.604C406.053 60.336 410.561 55.644 418.749 55.644H420.773V41.844H418.749ZM473.502 66.224C473.502 51.964 462.922 41.476 448.846 41.476C434.586 41.476 423.822 51.964 423.822 65.764C423.822 79.932 435.046 90.604 449.95 90.604C458.598 90.604 466.142 87.108 471.11 81.496L462.094 73.676C459.886 76.436 455.654 78.92 450.318 78.92C444.43 78.92 439.922 75.7 438.266 70.456H473.226C473.41 69.26 473.502 67.512 473.502 66.224ZM448.662 53.068C453.722 53.068 457.77 56.288 459.242 61.532H438.174C439.554 56.38 443.602 53.068 448.662 53.068Z" fill="white"/>
</svg>
